{
  "accessors": [
    {
      "bufferView": 2,
      "componentType": 5126,
      "count": 52076,
      "max": [
        0.011496600694954395,
        0.01154708955436945,
        0.01154505368322134
      ],
      "min": [
        -0.011496600694954395,
        -0.01154708955436945,
        -0.01154505368322134
      ],
      "type": "VEC3"
    },
    {
      "bufferView": 2,
      "byteOffset": 624912,
      "componentType": 5126,
      "count": 52076,
      "max": [
        1.0,
        0.9999753832817078,
        1.0
      ],
      "min": [
        -1.0,
        -0.999975323677063,
        -1.0
      ],
      "type": "VEC3"
    },
    {
      "bufferView": 3,
      "componentType": 5126,
      "count": 52076,
      "max": [
        1.0,
        1.0,
        1.0,
        1.0
      ],
      "min": [
        0.12941177189350128,
        0.12941177189350128,
        0.12941177189350128,
        1.0
      ],
      "type": "VEC4"
    },
    {
      "bufferView": 1,
      "componentType": 5126,
      "count": 52076,
      "max": [
        0.9743270874023438,
        0.9969217777252197
      ],
      "min": [
        0.003052530810236931,
        0.0030823964625597
      ],
      "type": "VEC2"
    },
    {
      "bufferView": 1,
      "byteOffset": 416608,
      "componentType": 5126,
      "count": 52076,
      "max": [
        0.9743270874023438,
        0.9969217777252197
      ],
      "min": [
        0.003052530810236931,
        0.0030823964625597
      ],
      "type": "VEC2"
    },
    {
      "bufferView": 1,
      "byteOffset": 833216,
      "componentType": 5126,
      "count": 52076,
      "max": [
        0.9743270874023438,
        0.9969217777252197
      ],
      "min": [
        0.003052530810236931,
        0.0030823964625597
      ],
      "type": "VEC2"
    },
    {
      "bufferView": 0,
      "componentType": 5125,
      "count": 168480,
      "type": "SCALAR"
    }
  ],
  "asset": {
    "extras": {
      "author": "mustafa255kww (https://sketchfab.com/mustafa255kww)",
      "license": "CC-BY-4.0 (http://creativecommons.org/licenses/by/4.0/)",
      "source": "https://sketchfab.com/3d-models/football-d90182b99b9a4fd294c0d8fc970a6c0d",
      "title": "Football"
    },
    "generator": "Sketchfab-15.50.0",
    "version": "2.0"
  },
  "bufferViews": [
    {
      "buffer": 0,
      "byteLength": 673920,
      "name": "floatBufferViews",
      "target": 34963
    },
    {
      "buffer": 0,
      "byteLength": 1249824,
      "byteOffset": 673920,
      "byteStride": 8,
      "name": "floatBufferViews",
      "target": 34962
    },
    {
      "buffer": 0,
      "byteLength": 1249824,
      "byteOffset": 1923744,
      "byteStride": 12,
      "name": "floatBufferViews",
      "target": 34962
    },
    {
      "buffer": 0,
      "byteLength": 833216,
      "byteOffset": 3173568,
      "byteStride": 16,
      "name": "floatBufferViews",
      "target": 34962
    }
  ],
  "buffers": [
    {
      "byteLength": 4006784,
      "uri": "scene.bin"
    }
  ],
  "materials": [
    {
      "doubleSided": true,
      "name": "soccer_ball.001",
      "pbrMetallicRoughness": {
        "baseColorFactor": [
          0.8,
          0.8,
          0.8,
          1.0
        ],
        "metallicFactor": 0.0,
        "roughnessFactor": 0.8211145618000169
      }
    }
  ],
  "meshes": [
    {
      "name": "soccer_ball.001_soccer_ball.001_0",
      "primitives": [
        {
          "attributes": {
            "COLOR_0": 2,
            "NORMAL": 1,
            "POSITION": 0,
            "TEXCOORD_0": 3,
            "TEXCOORD_1": 4,
            "TEXCOORD_2": 5
          },
          "indices": 6,
          "material": 0,
          "mode": 4
        }
      ]
    }
  ],
  "nodes": [
    {
      "children": [
        1
      ],
      "matrix": [
        1.0,
        0.0,
        0.0,
        0.0,
        0.0,
        2.220446049250313e-16,
        -1.0,
        0.0,
        0.0,
        1.0,
        2.220446049250313e-16,
        0.0,
        0.0,
        0.0,
        0.0,
        1.0
      ],
      "name": "Sketchfab_model"
    },
    {
      "children": [
        2
      ],
      "matrix": [
        0.009999999776482582,
        0.0,
        0.0,
        0.0,
        0.0,
        0.0,
        0.009999999776482582,
        0.0,
        0.0,
        -0.009999999776482582,
        0.0,
        0.0,
        0.0,
        0.0,
        0.0,
        1.0
      ],
      "name": "7b68b99724af4fdeaf97a635e948c90c.fbx"
    },
    {
      "children": [
        3
      ],
      "name": "RootNode"
    },
    {
      "children": [
        4
      ],
      "matrix": [
        4056.6608886717595,
        1.0737891964196836e-19,
        -0.0009671834402712579,
        0.0,
        -0.000967183440271245,
        -0.0006609139480446924,
        -4056.660888671706,
        0.0,
        -1.5757418324621987e-10,
        4056.660888671821,
        -0.0006609139480446924,
        0.0,
        -3.13490629196167,
        0.0,
        -8.249282836914063,
        1.0
      ],
      "name": "Football.001"
    },
    {
      "children": [
        5
      ],
      "matrix": [
        10.0,
        4.2351647362715008e-22,
        0.0,
        0.0,
        -4.2351647362715008e-22,
        10.0,
        2.1175823681357513e-22,
        0.0,
        8.96831017167883e-45,
        -2.1175823681357513e-22,
        10.0,
        0.0,
        0.0,
        2.3283064365386963e-10,
        0.11543209850788116,
        1.0
      ],
      "name": "soccer_ball.001"
    },
    {
      "mesh": 0,
      "name": "soccer_ball.001_soccer_ball.001_0"
    }
  ],
  "scene": 0,
  "scenes": [
    {
      "name": "Sketchfab_Scene",
      "nodes": [
        0
      ]
    }
  ]
}
