{
  "accessors": [
    {
      "bufferView": 2,
      "componentType": 5126,
      "count": 2425,
      "max": [
        1.4820945262908936,
        0.48075908422470093,
        1.4807590246200562
      ],
      "min": [
        -1.4596519470214844,
        -0.48084473609924316,
        -1.4807722568511963
      ],
      "type": "VEC3"
    },
    {
      "bufferView": 2,
      "byteOffset": 29100,
      "componentType": 5126,
      "count": 2425,
      "max": [
        0.9999920725822449,
        1.0,
        1.0
      ],
      "min": [
        -0.9989570379257202,
        -1.0,
        -1.0
      ],
      "type": "VEC3"
    },
    {
      "bufferView": 1,
      "componentType": 5126,
      "count": 2425,
      "max": [
        1.0,
        1.0
      ],
      "min": [
        8.881784197001252e-16,
        2.220446049250313e-16
      ],
      "type": "VEC2"
    },
    {
      "bufferView": 0,
      "componentType": 5125,
      "count": 13824,
      "type": "SCALAR"
    },
    {
      "bufferView": 2,
      "byteOffset": 58200,
      "componentType": 5126,
      "count": 2712,
      "max": [
        1.5199999809265137,
        0.7185435891151428,
        1.6617246866226196
      ],
      "min": [
        -1.5920614004135132,
        -0.28121381998062134,
        -1.6225051879882813
      ],
      "type": "VEC3"
    },
    {
      "bufferView": 2,
      "byteOffset": 90744,
      "componentType": 5126,
      "count": 2712,
      "max": [
        0.996875524520874,
        1.0,
        0.9990221261978149
      ],
      "min": [
        -0.9983693957328796,
        -0.9997633695602417,
        -0.9989503026008606
      ],
      "type": "VEC3"
    },
    {
      "bufferView": 1,
      "byteOffset": 19400,
      "componentType": 5126,
      "count": 2712,
      "max": [
        1.0,
        1.0
      ],
      "min": [
        8.881784197001252e-16,
        0.5
      ],
      "type": "VEC2"
    },
    {
      "bufferView": 0,
      "byteOffset": 55296,
      "componentType": 5125,
      "count": 14928,
      "type": "SCALAR"
    }
  ],
  "asset": {
    "extras": {
      "author": "blompblob (https://sketchfab.com/blompblob)",
      "license": "CC-BY-4.0 (http://creativecommons.org/licenses/by/4.0/)",
      "source": "https://sketchfab.com/3d-models/creme-donut-grape-4557b7ff947b4231a6c7d19766181fa9",
      "title": "Creme Donut grape"
    },
    "generator": "Sketchfab-15.49.0",
    "version": "2.0"
  },
  "bufferViews": [
    {
      "buffer": 0,
      "byteLength": 115008,
      "name": "floatBufferViews",
      "target": 34963
    },
    {
      "buffer": 0,
      "byteLength": 41096,
      "byteOffset": 115008,
      "byteStride": 8,
      "name": "floatBufferViews",
      "target": 34962
    },
    {
      "buffer": 0,
      "byteLength": 123288,
      "byteOffset": 156104,
      "byteStride": 12,
      "name": "floatBufferViews",
      "target": 34962
    }
  ],
  "buffers": [
    {
      "byteLength": 279392,
      "uri": "scene.bin"
    }
  ],
  "materials": [
    {
      "doubleSided": true,
      "name": "Material.001",
      "pbrMetallicRoughness": {
        "baseColorFactor": [
          0.573026,
          0.25288,
          0.0121463,
          1.0
        ],
        "metallicFactor": 0.0,
        "roughnessFactor": 0.5
      }
    },
    {
      "doubleSided": true,
      "emissiveFactor": [
        0.0952194,
        0.0952194,
        0.0952194
      ],
      "name": "Material.002",
      "pbrMetallicRoughness": {
        "baseColorFactor": [
          0.191297,
          0.0,
          0.8,
          1.0
        ],
        "metallicFactor": 0.127273,
        "roughnessFactor": 0.214545
      }
    }
  ],
  "meshes": [
    {
      "name": "Object_0",
      "primitives": [
        {
          "attributes": {
            "NORMAL": 1,
            "POSITION": 0,
            "TEXCOORD_0": 2
          },
          "indices": 3,
          "material": 0,
          "mode": 4
        }
      ]
    },
    {
      "name": "Object_1",
      "primitives": [
        {
          "attributes": {
            "NORMAL": 5,
            "POSITION": 4,
            "TEXCOORD_0": 6
          },
          "indices": 7,
          "material": 1,
          "mode": 4
        }
      ]
    }
  ],
  "nodes": [
    {
      "children": [
        1
      ],
      "matrix": [
        1.0,
        0.0,
        0.0,
        0.0,
        0.0,
        2.220446049250313e-16,
        -1.0,
        0.0,
        0.0,
        1.0,
        2.220446049250313e-16,
        0.0,
        0.0,
        0.0,
        0.0,
        1.0
      ],
      "name": "Sketchfab_model"
    },
    {
      "children": [
        2
      ],
      "name": "root"
    },
    {
      "children": [
        3,
        5
      ],
      "matrix": [
        1.0,
        0.0,
        0.0,
        0.0,
        0.0,
        2.220446049250313e-16,
        1.0,
        0.0,
        0.0,
        -1.0,
        2.220446049250313e-16,
        0.0,
        0.0,
        0.0,
        0.0,
        1.0
      ],
      "name": "GLTF_SceneRootNode"
    },
    {
      "children": [
        4
      ],
      "matrix": [
        0.9925652146339417,
        0.0,
        0.0,
        0.0,
        0.0,
        0.9925652146339417,
        0.0,
        0.0,
        0.0,
        0.0,
        0.9925652146339417,
        0.0,
        0.0,
        -0.050429731607437134,
        0.0,
        1.0
      ],
      "name": "Torus_2"
    },
    {
      "mesh": 0,
      "name": "Object_4"
    },
    {
      "children": [
        6
      ],
      "name": "Torus.001_3"
    },
    {
      "mesh": 1,
      "name": "Object_6"
    }
  ],
  "scene": 0,
  "scenes": [
    {
      "name": "Sketchfab_Scene",
      "nodes": [
        0
      ]
    }
  ]
}
